<svg width="112" height="31" viewBox="0 0 112 31" fill="none" xmlns="http://www.w3.org/2000/svg">
<rect width="31" height="31" rx="4" fill="white"/>
<path d="M16.046 11.304L13.697 21.474H10.673L14.273 9H17.927L21.509 21.474H18.377L16.046 11.304Z" fill="#263238"/>
<path d="M49.02 15.54C49.02 14.38 48.9 13.4533 48.66 12.76C48.42 12.06 48.1033 11.5333 47.71 11.18C47.3233 10.8267 46.8933 10.59 46.42 10.47C45.9533 10.35 45.4867 10.29 45.02 10.29H43.55V20.95H45.04C45.5267 20.95 46.0067 20.8733 46.48 20.72C46.9533 20.5667 47.38 20.2933 47.76 19.9C48.14 19.5067 48.4433 18.9567 48.67 18.25C48.9033 17.5433 49.02 16.64 49.02 15.54ZM51.12 15.54C51.12 16.6867 50.9967 17.6633 50.75 18.47C50.51 19.2767 50.1767 19.9433 49.75 20.47C49.33 20.9967 48.85 21.41 48.31 21.71C47.77 22.0033 47.2 22.21 46.6 22.33C46 22.4433 45.4067 22.5 44.82 22.5H41.57V8.72H44.6C45.4133 8.72 46.2067 8.81 46.98 8.99C47.76 9.16333 48.46 9.49333 49.08 9.98C49.7067 10.4667 50.2033 11.1567 50.57 12.05C50.9367 12.9433 51.12 14.1067 51.12 15.54ZM55.4522 17.88C55.4922 18.6533 55.6489 19.2867 55.9222 19.78C56.1955 20.2667 56.5522 20.6267 56.9922 20.86C57.4322 21.0867 57.9189 21.2 58.4522 21.2C58.9789 21.2 59.4622 21.12 59.9022 20.96C60.3422 20.8 60.7889 20.5667 61.2422 20.26L62.1122 21.47C61.6189 21.8633 61.0489 22.1767 60.4022 22.41C59.7555 22.6367 59.0855 22.75 58.3922 22.75C57.3389 22.75 56.4422 22.52 55.7022 22.06C54.9689 21.5933 54.4089 20.9467 54.0222 20.12C53.6422 19.2933 53.4522 18.3333 53.4522 17.24C53.4522 16.18 53.6422 15.2333 54.0222 14.4C54.4089 13.5667 54.9522 12.91 55.6522 12.43C56.3522 11.95 57.1855 11.71 58.1522 11.71C59.0589 11.71 59.8389 11.92 60.4922 12.34C61.1522 12.76 61.6589 13.36 62.0122 14.14C62.3655 14.9133 62.5422 15.84 62.5422 16.92C62.5422 17.1 62.5389 17.2733 62.5322 17.44C62.5255 17.6067 62.5155 17.7533 62.5022 17.88H55.4522ZM58.1722 13.21C57.4255 13.21 56.8022 13.4767 56.3022 14.01C55.8089 14.5433 55.5255 15.3667 55.4522 16.48H60.6922C60.6722 15.4133 60.4389 14.6033 59.9922 14.05C59.5522 13.49 58.9455 13.21 58.1722 13.21ZM74.8744 11.96L71.0944 22.5H68.8544L65.0944 11.96H67.1344L70.0244 20.83L72.9044 11.96H74.8744ZM86.0066 8.72V17.86C86.0066 18.4733 85.9232 19.0733 85.7566 19.66C85.5899 20.24 85.3166 20.7633 84.9366 21.23C84.5632 21.69 84.0666 22.0567 83.4466 22.33C82.8332 22.6033 82.0732 22.74 81.1666 22.74C80.4532 22.74 79.7732 22.6333 79.1266 22.42C78.4799 22.2 77.8766 21.8867 77.3166 21.48L78.1666 20.19C78.7466 20.5567 79.2766 20.8067 79.7566 20.94C80.2366 21.0667 80.6899 21.13 81.1166 21.13C82.0366 21.13 82.7499 20.8367 83.2566 20.25C83.7699 19.6567 84.0266 18.8333 84.0266 17.78V10.29H79.9166V8.72H86.0066ZM91.4288 17.88C91.4688 18.6533 91.6254 19.2867 91.8988 19.78C92.1721 20.2667 92.5288 20.6267 92.9688 20.86C93.4088 21.0867 93.8954 21.2 94.4288 21.2C94.9554 21.2 95.4388 21.12 95.8788 20.96C96.3188 20.8 96.7654 20.5667 97.2188 20.26L98.0888 21.47C97.5954 21.8633 97.0254 22.1767 96.3788 22.41C95.7321 22.6367 95.0621 22.75 94.3688 22.75C93.3154 22.75 92.4188 22.52 91.6788 22.06C90.9454 21.5933 90.3854 20.9467 89.9988 20.12C89.6188 19.2933 89.4288 18.3333 89.4288 17.24C89.4288 16.18 89.6188 15.2333 89.9988 14.4C90.3854 13.5667 90.9288 12.91 91.6288 12.43C92.3288 11.95 93.1621 11.71 94.1288 11.71C95.0354 11.71 95.8154 11.92 96.4688 12.34C97.1288 12.76 97.6354 13.36 97.9888 14.14C98.3421 14.9133 98.5188 15.84 98.5188 16.92C98.5188 17.1 98.5154 17.2733 98.5088 17.44C98.5021 17.6067 98.4921 17.7533 98.4787 17.88H91.4288ZM94.1488 13.21C93.4021 13.21 92.7788 13.4767 92.2788 14.01C91.7854 14.5433 91.5021 15.3667 91.4288 16.48H96.6688C96.6488 15.4133 96.4154 14.6033 95.9688 14.05C95.5288 13.49 94.9221 13.21 94.1488 13.21ZM110.431 21.96C110.058 22.2 109.608 22.39 109.081 22.53C108.554 22.6767 108.028 22.75 107.501 22.75C106.328 22.75 105.428 22.4433 104.801 21.83C104.181 21.2167 103.871 20.42 103.871 19.44V13.4H101.481V11.96H103.871V9.58L105.791 9.35V11.96H109.391L109.171 13.4H105.791V19.42C105.791 20 105.938 20.4367 106.231 20.73C106.531 21.0233 107.028 21.17 107.721 21.17C108.114 21.17 108.474 21.1233 108.801 21.03C109.128 20.9367 109.431 20.8167 109.711 20.67L110.431 21.96Z" fill="white"/>
</svg>
